# xmcd
#
# Track frame offsets:
#	150
#	11433
#	26232
#	41743
#	61275
#	73221
#	84013
#	96359
#	108758
#	122859
#	135100
#	149868
#	171102
#	181423
#	194355
#	204535
#	215393
#
# Disc length: 3051 seconds
# Revision: 1
# Processed by: cddbd v1.5.2PL0 Copyright (c) Steve Scherf et al.
# Submitted via: dBpowerAMP V12.0
#
DISCID=f50be911
DTITLE=John Mayall and the Bluesbreakers - John Mayall Plays John Mayall
DYEAR=1965
DGENRE=Blues
TTITLE0=Crawling Up a Hill
TTITLE1=I Wanna Teach You Everything
TTITLE2=When I'm Gone
TTITLE3=I Need Your Love
TTITLE4=The Hoot Owl
TTITLE5=R and B Time: Night Train - Lucille
TTITLE6=Crocodile Walk
TTITLE7=What's the Matter With You
TTITLE8=Doreen
TTITLE9=Runaway
TTITLE10=Heartache
TTITLE11=Chicago Line
TTITLE12=Crawling Up a Hill
TTITLE13=Mr. James
TTITLE14=Crocodile Walk
TTITLE15=Blues City Shakedown
TTITLE16=My Baby Is Sweeter
EXTD=
EXTT0=
EXTT1=
EXTT2=
EXTT3=
EXTT4=
EXTT5=
EXTT6=
EXTT7=
EXTT8=
EXTT9=
EXTT10=
EXTT11=
EXTT12=
EXTT13=
EXTT14=
EXTT15=
EXTT16=
PLAYORDER=
